<svg width="60" height="115" viewBox="0 0 60 115" fill="none" xmlns="http://www.w3.org/2000/svg">
<path d="M41.968 96.664C41.968 93.784 40.912 91.48 38.8 89.752C36.784 88.024 34.24 86.536 31.168 85.288C28.096 83.944 24.784 82.696 21.232 81.544C17.68 80.296 14.368 78.808 11.296 77.08C8.224 75.256 5.632 72.952 3.52 70.168C1.504 67.384 0.496001 63.736 0.496001 59.224C0.496001 54.424 2.32 50.296 5.968 46.84C9.616 43.384 14.08 40.552 19.36 38.344C17.344 37.384 15.472 36.328 13.744 35.176C12.016 34.024 10.48 32.68 9.136 31.144C7.888 29.512 6.88 27.688 6.112 25.672C5.344 23.56 4.96 21.16 4.96 18.472C4.96 15.88 5.536 13.48 6.688 11.272C7.84 9.064 9.424 7.19199 11.44 5.65599C13.552 4.024 16.048 2.776 18.928 1.912C21.808 0.951998 25.024 0.471998 28.576 0.471998C33.76 0.471998 38.224 0.759997 41.968 1.336C45.712 1.816 49.12 2.632 52.192 3.784C52 5.32 51.808 6.664 51.616 7.816C51.424 8.872 51.184 9.92799 50.896 10.984C50.608 12.04 50.272 13.144 49.888 14.296C49.504 15.448 49.072 16.792 48.592 18.328H44.992L36.928 7.96C35.776 7.48 34.672 7.192 33.616 7.096C32.656 6.904 31.408 6.80799 29.872 6.80799C25.744 6.80799 22.72 7.91199 20.8 10.12C18.88 12.328 17.92 14.68 17.92 17.176C17.92 20.056 18.928 22.456 20.944 24.376C23.056 26.2 25.648 27.832 28.72 29.272C31.792 30.712 35.104 32.104 38.656 33.448C42.208 34.696 45.52 36.232 48.592 38.056C51.664 39.88 54.208 42.088 56.224 44.68C58.336 47.272 59.392 50.536 59.392 54.472C59.392 57.256 58.816 59.8 57.664 62.104C56.512 64.312 55.024 66.328 53.2 68.152C51.376 69.976 49.36 71.608 47.152 73.048C44.944 74.392 42.832 75.544 40.816 76.504C42.736 77.368 44.56 78.328 46.288 79.384C48.016 80.344 49.504 81.496 50.752 82.84C52.096 84.184 53.104 85.72 53.776 87.448C54.544 89.08 54.928 91 54.928 93.208C54.928 99.928 52.384 105.208 47.296 109.048C42.208 112.888 35.392 114.808 26.848 114.808C18.88 114.808 11.104 113.416 3.52 110.632C3.616 108.904 3.76 107.416 3.952 106.168C4.24 105.016 4.528 103.912 4.816 102.856C5.104 101.704 5.44 100.6 5.824 99.544C6.208 98.392 6.64 97.048 7.12 95.512H10.72L19.936 106.888C20.992 107.752 22 108.232 22.96 108.328C24.016 108.424 25.216 108.472 26.56 108.472C31.168 108.472 34.864 107.32 37.648 105.016C40.528 102.712 41.968 99.928 41.968 96.664ZM46.432 57.928C46.432 55.624 45.856 53.656 44.704 52.024C43.552 50.296 42.016 48.856 40.096 47.704C38.176 46.456 35.968 45.352 33.472 44.392C31.072 43.336 28.576 42.28 25.984 41.224C22.72 42.76 19.792 44.872 17.2 47.56C14.704 50.152 13.456 52.984 13.456 56.056C13.456 58.552 14.032 60.712 15.184 62.536C16.432 64.36 18.016 65.944 19.936 67.288C21.856 68.632 24.064 69.832 26.56 70.888C29.152 71.944 31.744 72.952 34.336 73.912C35.968 72.952 37.504 71.8 38.944 70.456C40.384 69.112 41.632 67.768 42.688 66.424C43.84 64.984 44.752 63.544 45.424 62.104C46.096 60.664 46.432 59.272 46.432 57.928Z" fill="#C4C4C4" fill-opacity="0.37"/>
</svg>
