<svg width="105" height="105" viewBox="0 0 105 105" fill="none" xmlns="http://www.w3.org/2000/svg">
<path d="M61.76 85.288C58.88 82.696 55.712 79.672 52.256 76.216C48.896 72.664 45.632 69.064 42.464 65.416C39.296 61.768 36.368 58.264 33.68 54.904C30.992 51.544 28.88 48.76 27.344 46.552C23.216 50.584 20.24 54.52 18.416 58.36C16.592 62.104 15.68 66.52 15.68 71.608C15.68 75.256 16.256 78.664 17.408 81.832C18.656 84.904 20.336 87.592 22.448 89.896C24.56 92.2 27.104 94.024 30.08 95.368C33.056 96.616 36.272 97.24 39.728 97.24C44.048 97.24 48.08 96.28 51.824 94.36C55.568 92.344 58.88 89.32 61.76 85.288ZM24.608 19.048C24.608 20.776 24.944 22.648 25.616 24.664C26.288 26.584 27.152 28.504 28.208 30.424C29.36 32.344 30.56 34.216 31.808 36.04C33.152 37.864 34.448 39.496 35.696 40.936C39.152 38.056 41.936 34.744 44.048 31C46.256 27.16 47.12 22.648 46.64 17.464C46.448 14.392 45.488 11.8 43.76 9.688C42.032 7.576 39.296 6.52 35.552 6.52C33.44 6.52 31.664 6.904 30.224 7.67199C28.88 8.34399 27.776 9.304 26.912 10.552C26.048 11.704 25.424 13.048 25.04 14.584C24.752 16.024 24.608 17.512 24.608 19.048ZM84.368 103C82.352 101.656 79.808 100.024 76.736 98.104C73.664 96.088 70.304 93.304 66.656 89.752C65.312 91.576 63.632 93.4 61.616 95.224C59.6 96.952 57.2 98.536 54.416 99.976C51.728 101.416 48.704 102.568 45.344 103.432C41.984 104.296 38.336 104.728 34.4 104.728C29.312 104.728 24.704 103.96 20.576 102.424C16.448 100.888 12.944 98.824 10.064 96.232C7.184 93.64 4.928 90.664 3.296 87.304C1.76 83.944 0.992001 80.44 0.992001 76.792C0.992001 72.088 1.856 67.864 3.584 64.12C5.312 60.28 7.376 56.968 9.776 54.184C12.176 51.304 14.672 48.904 17.264 46.984C19.856 44.968 22.016 43.336 23.744 42.088C20.96 39.016 18.608 35.416 16.688 31.288C14.768 27.16 13.808 23.32 13.808 19.768C13.808 17.368 14.288 15.016 15.248 12.712C16.208 10.312 17.6 8.248 19.424 6.52C21.344 4.696 23.648 3.256 26.336 2.19999C29.12 1.048 32.24 0.471998 35.696 0.471998C42.032 0.471998 47.12 1.864 50.96 4.648C54.896 7.336 56.864 11.272 56.864 16.456C56.864 19.624 56.288 22.6 55.136 25.384C54.08 28.072 52.688 30.568 50.96 32.872C49.232 35.176 47.264 37.288 45.056 39.208C42.944 41.128 40.832 42.904 38.72 44.536C42.656 49.432 47.216 54.472 52.4 59.656C57.584 64.84 63.056 70.024 68.816 75.208C69.584 74.152 70.544 72.376 71.696 69.88C72.848 67.384 73.904 64.456 74.864 61.096C75.92 57.736 76.736 54.088 77.312 50.152C77.984 46.12 78.176 42.136 77.888 38.2C75.008 37.624 72.176 36.472 69.392 34.744V31H98.624V34.744C96.032 36.376 92.864 37.528 89.12 38.2C88.256 43.864 87.152 49 85.808 53.608C84.464 58.216 83.072 62.296 81.632 65.848C80.192 69.304 78.8 72.28 77.456 74.776C76.208 77.176 75.2 78.952 74.432 80.104C78.08 83.08 81.632 85.864 85.088 88.456C88.64 90.952 92.576 93.448 96.896 95.944L104.816 99.4V103H84.368Z" fill="#C4C4C4" fill-opacity="0.35"/>
</svg>
